<?xml version="1.0" standalone="no"?><svg xmlns="http://www.w3.org/2000/svg" viewBox="0 0 1440 320"><path fill="#ffffff" fill-opacity="1" d="M0,192L6.7,181.3C13.3,171,27,149,40,133.3C53.3,117,67,107,80,96C93.3,85,107,75,120,106.7C133.3,139,147,213,160,245.3C173.3,277,187,267,200,256C213.3,245,227,235,240,213.3C253.3,192,267,160,280,122.7C293.3,85,307,43,320,69.3C333.3,96,347,192,360,208C373.3,224,387,160,400,128C413.3,96,427,96,440,128C453.3,160,467,224,480,234.7C493.3,245,507,203,520,186.7C533.3,171,547,181,560,160C573.3,139,587,85,600,96C613.3,107,627,181,640,229.3C653.3,277,667,299,680,266.7C693.3,235,707,149,720,133.3C733.3,117,747,171,760,208C773.3,245,787,267,800,245.3C813.3,224,827,160,840,112C853.3,64,867,32,880,21.3C893.3,11,907,21,920,53.3C933.3,85,947,139,960,144C973.3,149,987,107,1000,128C1013.3,149,1027,235,1040,261.3C1053.3,288,1067,256,1080,229.3C1093.3,203,1107,181,1120,160C1133.3,139,1147,117,1160,101.3C1173.3,85,1187,75,1200,96C1213.3,117,1227,171,1240,186.7C1253.3,203,1267,181,1280,170.7C1293.3,160,1307,160,1320,165.3C1333.3,171,1347,181,1360,170.7C1373.3,160,1387,128,1400,138.7C1413.3,149,1427,203,1433,229.3L1440,256L1440,320L1433.3,320C1426.7,320,1413,320,1400,320C1386.7,320,1373,320,1360,320C1346.7,320,1333,320,1320,320C1306.7,320,1293,320,1280,320C1266.7,320,1253,320,1240,320C1226.7,320,1213,320,1200,320C1186.7,320,1173,320,1160,320C1146.7,320,1133,320,1120,320C1106.7,320,1093,320,1080,320C1066.7,320,1053,320,1040,320C1026.7,320,1013,320,1000,320C986.7,320,973,320,960,320C946.7,320,933,320,920,320C906.7,320,893,320,880,320C866.7,320,853,320,840,320C826.7,320,813,320,800,320C786.7,320,773,320,760,320C746.7,320,733,320,720,320C706.7,320,693,320,680,320C666.7,320,653,320,640,320C626.7,320,613,320,600,320C586.7,320,573,320,560,320C546.7,320,533,320,520,320C506.7,320,493,320,480,320C466.7,320,453,320,440,320C426.7,320,413,320,400,320C386.7,320,373,320,360,320C346.7,320,333,320,320,320C306.7,320,293,320,280,320C266.7,320,253,320,240,320C226.7,320,213,320,200,320C186.7,320,173,320,160,320C146.7,320,133,320,120,320C106.7,320,93,320,80,320C66.7,320,53,320,40,320C26.7,320,13,320,7,320L0,320Z"></path></svg>